PathFileType	4	(X/Y/Z)	C:/Users/beibeiliu/ov580/test_trc/User3\out7_training_dense_left.trc
DataRate	CameraRate	NumFrames	NumMarkers	Units	OrigDataRate	OrigDataStartFrame	OrigNumFrames
120	120	9	19	mm	120	376	500
Frame#	Time	ThumbCMC			ThumbMCP			ThumbIP			ThumbTip			IndexMCP			IndexPIP			IndexTip			MiddleMCP			MiddlePIP			MiddleTip			RingMCP			RingPIP			RingTip			PinkyMCP			PinkyPIP			PinkyTip			BackHand1			BackHand2			BackHand3	
		X0	Y0	Z0	X1	Y1	Z1	X2	Y2	Z2	X3	Y3	Z3	X4	Y4	Z4	X5	Y5	Z5	X6	Y6	Z6	X7	Y7	Z7	X8	Y8	Z8	X9	Y9	Z9	X10	Y10	Z10	X11	Y11	Z11	X12	Y12	Z12	X13	Y13	Z13	X14	Y14	Z14	X15	Y15	Z15	X16	Y16	Z16	X17	Y17	Z17	X18	Y18	Z18	
375	3.125	-215.009	75.4939	46.6907	-225.607	83.7879	12.5553	-234.421	86.23	-16.9252	-239.274	64.3057	-39.2109	-272.756	49.6856	2.36828	-265.589	58.1006	-29.4664	-233.113	70.1014	-19.9363	-270.157	30.4475	-3.4085	-259.533	39.5064	-36.9252	-223.929	51.3002	-30.2464	-256.62	15.8952	-2.57989	-246.153	24.1465	-32.2232	-213.215	37.6259	-20.708	-240.406	-0.709336	-1.73832	-232.349	9.54395	-24.0194	-208.519	27.3387	-15.6942	-239.519	13.3411	48.3601	-215.427	16.8499	70.7971	-234.494	46.5369	65.3309	
376	3.13333	-229.688	60.2505	35.2798	-237.64	65.753	-0.539126	-239.984	57.2715	-28.0646	-233.211	41.5156	-48.436	-265.301	14.0377	-16.6148	-253.237	28.7689	-44.3274	-232.15	45.8098	-30.7805	-254.557	-4.36913	-17.0894	-245.141	9.98585	-47.8766	-216.296	34.3882	-38.5459	-237.038	-13.7179	-16.6656	-222.518	-4.9589	-39.9401	-206.83	22.4127	-33.041	-220.473	-19.9368	-6.61442	-210.278	-11.6482	-29.593	-198.123	17.4901	-21.9869	-225.736	-3.45891	45.8009	-213.588	9.18383	64.4325	-241.635	26.8393	50.3742	
377	3.14167	-235.424	45.5551	26.4626	-236.694	43.1485	-8.86476	-232.23	35.5868	-36.5495	-218.892	23.0258	-54.2887	-249.732	-9.25826	-26.9571	-236.727	6.88014	-51.4197	-220.212	27.6041	-33.808	-234.935	-25.8418	-28.1382	-222.57	-13.1847	-53.7403	-200.061	18.5285	-40.9752	-215.842	-29.722	-20.1785	-200.78	-19.9187	-42.0071	-191.513	10.9355	-34.5275	-196.14	-31.6772	-4.70235	-184.863	-24.4223	-29.2139	-181.785	5.9426	-26.0469	-215.324	-14.9466	39.9627	-204.428	-2.03906	61.3409	-237.562	7.87506	44.7017	
378	3.15	-231.352	30.1982	19.3434	-226.171	31.222	-15.1874	-217.076	27.5841	-43.5364	-196.318	12.2818	-54.5864	-226.45	-24.0149	-33.8616	-212.17	-2.22256	-55.5441	-201.541	17.7252	-32.927	-210.358	-36.7201	-29.2856	-191.488	-20.5167	-53.1159	-181.356	12.4184	-39.3845	-191.707	-39.141	-15.8663	-175.266	-26.4159	-40.6628	-173.051	7.79158	-28.8432	-175.111	-39.4768	-3.99364	-161.952	-27.0971	-25.2336	-164.585	0.686105	-24.6478	-202.438	-26.5241	38.9418	-201.702	-14.0766	62.014	-232.941	-4.2789	40.3545	
379	3.15833	-222.89	27.4152	17.5548	-212.024	31.939	-14.8674	-195.375	25.5174	-36.9288	-171.918	15.4992	-52.9456	-206.067	-26.1558	-33.2704	-185.538	-10.7818	-54.9827	-183.93	16.9202	-32.6987	-189.138	-38.5407	-32.252	-168.443	-24.2314	-50.3563	-161.604	11.3573	-34.6306	-174.673	-40.0747	-20.432	-153.741	-27.1055	-33.7385	-152.81	3.97423	-24.4006	-160.932	-40.3004	-1.68494	-144.485	-28.9022	-18.6287	-142.06	-0.041353	-12.3461	-193.011	-32.3128	38.5999	-199.077	-19.67	61.2065	-225.606	-9.08169	32.6781	
380	3.16667	-210.622	22.4015	18.4803	-195.82	30.5542	-13.1558	-176.686	28.2001	-36.1874	-152.969	15.8243	-40.536	-187.371	-26.4338	-36.3109	-164.553	-9.28387	-51.0191	-166.648	18.6413	-33.4792	-170.86	-35.9765	-25.7207	-146.677	-19.6853	-44.5263	-143.437	18.0483	-23.5036	-156.675	-38.2388	-13.56	-134.963	-19.5045	-28.1461	-137.562	9.79875	-13.1267	-145.589	-39.1513	5.48958	-129.812	-26.4475	-9.64097	-128.394	3.01136	-2.08203	-185.954	-37.363	35.325	-196.267	-21.7725	59.1802	-213.816	-14.9933	29.6082	
381	3.175	-201.628	21.1606	22.0036	-184.668	30.1313	-8.17235	-164.286	29.7633	-32.5342	-139.811	21.9591	-36.7148	-171.29	-26.4143	-31.7613	-154.396	-10.585	-50.6884	-150.229	19.9168	-28.6511	-153.856	-34.1042	-24.9519	-132.85	-14.0469	-39.3564	-130.075	19.4274	-19.6912	-143.384	-37.641	-6.92812	-122.851	-18.1852	-21.9256	-121.99	11.1398	-8.35692	-136.42	-36.1261	12.2099	-116.424	-22.5418	-3.60087	-118.608	5.37394	0.181534	-177.589	-37.1152	38.9845	-188.872	-23.5434	65.2671	-206.111	-15.0275	34.225	
382	3.18333	-198.598	25.9534	24.4351	-177.777	29.8638	-1.99522	-158.971	33.6922	-25.6669	-134.118	25.2466	-36.4342	-168.664	-23.967	-27.8294	-143.988	-7.69049	-48.2046	-141.881	21.4278	-33.0941	-149.99	-31.6374	-25.2437	-128.202	-11.1408	-39.9462	-122.572	21.4216	-16.7606	-136.687	-36.2626	-9.63621	-116.443	-18.7121	-19.8946	-114.525	13.3345	-5.23288	-126.454	-37.6394	11.153	-113.422	-23.2604	-3.14119	-106.091	7.42566	2.60287	-173.29	-34.4426	37.1511	-181.924	-23.217	64.7221	-199.063	-16.4065	37.0911	
383	3.19167	-189.807	21.7383	25.6703	-173.832	34.8868	-0.845041	-152.09	30.6919	-22.6446	-128.053	23.7245	-34.1051	-165.848	-23.643	-30.1395	-141.775	-10.4667	-46.8959	-136.466	21.9772	-33.3623	-145.765	-32.9708	-18.9725	-123.084	-15.0662	-35.9445	-119.787	23.2878	-18.2257	-135.739	-33.9383	-8.43729	-114.23	-17.1332	-21.1321	-112.432	12.8926	-7.48036	-124.441	-36.4082	12.3048	-108.838	-19.6878	-4.50381	-102.894	8.58683	3.60074	-169.216	-33.1823	39.5299	-177.665	-25.8085	69.0758	-198.198	-11.7189	35.8035	
